<svg width="35" height="35" viewBox="0 0 41 45" fill="none" xmlns="http://www.w3.org/2000/svg">
  <path
    d="M36.6461 0.472595H4.71689C2.31313 0.472595 0.362915 2.60951 0.362915 5.24339V40.2292C0.362915 42.8631 2.31313 45 4.71689 45H36.6461C39.0498 45 41 42.8631 41 40.2292V5.24339C41 2.60951 39.0498 0.472595 36.6461 0.472595ZM32.2104 16.256C32.2286 16.5343 32.2286 16.8225 32.2286 17.1008C32.2286 25.718 26.2419 35.6473 15.3025 35.6473C11.9282 35.6473 8.79874 34.5738 6.16822 32.7251C6.64897 32.7848 7.11158 32.8047 7.6014 32.8047C10.3861 32.8047 12.9441 31.771 14.985 30.0217C12.3726 29.9621 10.1775 28.0836 9.42463 25.4994C10.3408 25.6485 11.1662 25.6485 12.1096 25.3801C9.38834 24.7738 7.34742 22.1499 7.34742 18.9793V18.8998C8.13658 19.3868 9.0618 19.685 10.0324 19.7247C9.21639 19.13 8.54747 18.3232 8.0853 17.3763C7.62313 16.4293 7.3821 15.3718 7.3837 14.298C7.3837 13.0854 7.67397 11.9722 8.191 11.0081C11.1209 14.9639 15.5202 17.5481 20.4547 17.8264C19.6111 13.4034 22.6317 9.8154 26.26 9.8154C27.9744 9.8154 29.5164 10.6006 30.6049 11.8728C31.9474 11.5945 33.2354 11.0479 34.3784 10.3024C33.9339 11.8132 32.9996 13.0854 31.766 13.8905C32.9633 13.7513 34.1244 13.3836 35.1947 12.8767C34.3874 14.1787 33.3715 15.3316 32.2104 16.256Z"
    fill="white" />
</svg>