<svg width="35" height="35" viewBox="0 0 41 45" fill="none" xmlns="http://www.w3.org/2000/svg">
  <path
    d="M36.2907 0.472595H4.74165C2.36651 0.472595 0.439514 2.60951 0.439514 5.24339V40.2292C0.439514 42.8631 2.36651 45 4.74165 45H36.2907C38.6658 45 40.5928 42.8631 40.5928 40.2292V5.24339C40.5928 2.60951 38.6658 0.472595 36.2907 0.472595ZM25.2933 38.6091C24.5405 38.7582 24.2626 38.2414 24.2626 37.814C24.2626 37.2773 24.2805 34.5341 24.2805 32.3176C24.2805 30.7671 23.8145 29.7832 23.2677 29.2663C26.584 28.8588 30.0795 28.3519 30.0795 22.0008C30.0795 20.1919 29.4969 19.2874 28.5468 18.1245C28.6992 17.6971 29.2101 15.9379 28.3945 13.6519C27.1486 13.2245 24.2985 15.431 24.2985 15.431C23.1154 15.0633 21.8337 14.8744 20.5699 14.8744C19.3062 14.8744 18.0245 15.0633 16.8414 15.431C16.8414 15.431 13.9913 13.2245 12.7454 13.6519C11.9298 15.928 12.4317 17.6872 12.5931 18.1245C11.643 19.2874 11.1949 20.1919 11.1949 22.0008C11.1949 28.3221 14.538 28.8588 17.8542 29.2663C17.424 29.6937 17.0386 30.4292 16.9042 31.4828C16.0527 31.9101 13.8747 32.6456 12.5751 30.1012C11.7595 28.5308 10.2896 28.4016 10.2896 28.4016C8.83765 28.3817 10.191 29.4154 10.191 29.4154C11.159 29.9124 11.8402 31.8207 11.8402 31.8207C12.7096 34.7726 16.8683 33.7787 16.8683 33.7787C16.8683 35.1602 16.8862 37.4065 16.8862 37.814C16.8862 38.2414 16.6174 38.7582 15.8555 38.6091C9.94007 36.4126 5.79926 30.1708 5.79926 22.8754C5.79926 13.7513 12.0911 6.82371 20.319 6.82371C28.5468 6.82371 35.2151 13.7513 35.2151 22.8754C35.2241 30.1708 31.2088 36.4225 25.2933 38.6091ZM16.5008 32.5363C16.3305 32.5761 16.1692 32.4965 16.1513 32.3673C16.1334 32.2182 16.2499 32.089 16.4202 32.0493C16.5905 32.0294 16.7518 32.1089 16.7697 32.2381C16.7966 32.3673 16.6801 32.4965 16.5008 32.5363ZM15.6494 32.4469C15.6494 32.5761 15.5149 32.6854 15.3357 32.6854C15.1385 32.7053 15.0041 32.5959 15.0041 32.4469C15.0041 32.3176 15.1385 32.2083 15.3177 32.2083C15.488 32.1884 15.6494 32.2978 15.6494 32.4469ZM14.4215 32.3375C14.3856 32.4667 14.2064 32.5264 14.054 32.4667C13.8837 32.427 13.7672 32.2779 13.803 32.1487C13.8389 32.0195 14.0181 31.9598 14.1705 31.9996C14.3498 32.0592 14.4663 32.2083 14.4215 32.3375ZM13.319 31.8008C13.2384 31.9101 13.0681 31.8903 12.9336 31.7412C12.7992 31.612 12.7634 31.4231 12.853 31.3337C12.9336 31.2243 13.1039 31.2442 13.2384 31.3933C13.3549 31.5225 13.3997 31.7213 13.319 31.8008ZM12.5034 30.8963C12.4228 30.956 12.2704 30.8963 12.1718 30.7473C12.0732 30.5982 12.0732 30.4292 12.1718 30.3596C12.2704 30.2702 12.4228 30.3397 12.5034 30.4888C12.602 30.6379 12.602 30.8168 12.5034 30.8963V30.8963ZM11.9209 29.9322C11.8402 30.0217 11.7057 29.972 11.6072 29.8726C11.5086 29.7434 11.4906 29.5943 11.5713 29.5247C11.652 29.4353 11.7864 29.485 11.885 29.5844C11.9836 29.7136 12.0015 29.8627 11.9209 29.9322ZM11.3203 29.1967C11.2845 29.2862 11.168 29.3061 11.0694 29.2365C10.9529 29.1769 10.8991 29.0675 10.9349 28.9781C10.9708 28.9184 11.0694 28.8886 11.1859 28.9383C11.3024 29.0079 11.3562 29.1172 11.3203 29.1967Z"
    fill="white" />
</svg>