<svg width="100" height="111" viewBox="0 0 122 121" fill="none" xmlns="http://www.w3.org/2000/svg">
  <path
    d="M101.134 120.846H21.0615C9.59546 120.846 0.302086 111.64 0.302086 100.281V20.9686C0.302086 9.60989 9.59546 0.404419 21.0615 0.404419H101.123C112.589 0.404419 121.882 9.60989 121.882 20.9686V100.281C121.882 111.64 112.589 120.846 101.134 120.846Z"
    fill="#16B0AC" />
  <path
    d="M92.9541 84.1373H54.1467C47.269 84.1373 42.9857 77.0122 46.4607 71.3425L65.865 39.6802C69.2975 34.0731 77.793 34.0731 81.2371 39.6802L100.64 71.3425C104.116 77.0122 99.8318 84.1373 92.9541 84.1373Z"
    fill="white" />
  <path
    d="M66.4107 85.4472H28.9264C22.2895 85.4472 18.1529 78.5622 21.503 73.0905L40.2446 42.5195C43.5624 37.1003 51.7632 37.1003 55.0811 42.5195L73.8239 73.0905C77.1842 78.5723 73.0465 85.4472 66.4107 85.4472Z"
    fill="#D7EEEB" />
</svg>