<svg width="35" height="35" viewBox="0 0 40 45" fill="none" xmlns="http://www.w3.org/2000/svg">
  <path
    d="M36.8361 0.472595H2.82469C1.26624 0.472595 0 1.89641 0 3.64426V41.2919C0 43.0397 1.26624 44.4635 2.82469 44.4635H36.8361C38.3945 44.4635 39.6696 43.0397 39.6696 41.2919V3.64426C39.6696 1.89641 38.3945 0.472595 36.8361 0.472595ZM11.9894 38.1791H6.10983V17.1852H11.9983V38.1791H11.9894ZM9.04964 14.318C7.16356 14.318 5.64053 12.6192 5.64053 10.5375C5.64053 8.45577 7.16356 6.75701 9.04964 6.75701C10.9269 6.75701 12.4587 8.45577 12.4587 10.5375C12.4587 12.629 10.9357 14.318 9.04964 14.318V14.318ZM34.0291 38.1791H28.1495V27.9669C28.1495 25.5317 28.1052 22.3993 25.0946 22.3993C22.0308 22.3993 21.5615 25.0506 21.5615 27.7902V38.1791H15.6819V17.1852H21.3224V20.0525H21.4021C22.1902 18.4028 24.1117 16.6648 26.9718 16.6648C32.9223 16.6648 34.0291 21.0148 34.0291 26.6708V38.1791V38.1791Z"
    fill="white" />
</svg>